<?xml version="1.0" encoding="utf-8"?>
<svg viewBox="0 0 500 500" xmlns="http://www.w3.org/2000/svg">
  <path style="stroke: rgb(0, 0, 0); fill: rgb(15, 192, 67);" d="M 36.808 455.169 C 36.808 428.587 36.858 406.202 45.729 380.98 C 47.74 375.261 51.237 364.937 55.674 360.433 C 55.67 341.939 41.703 322.238 34.949 305.331 C 29.687 292.161 30.647 279.537 30.647 265.697 C 30.639 247.631 30.647 229.565 30.647 211.498 C 30.647 205.626 28.747 195.614 30.647 189.896 C 32.846 183.273 39.972 177.454 44.274 172.062 C 51.261 163.301 56.599 153.41 62.681 144.03 C 64.189 141.703 73.346 133.144 73.346 130.964 C 73.505 131.047 73.423 125.799 73.826 124.61 C 75.087 120.907 76.789 116.335 78.797 113.026 C 86.185 100.86 96.96 88.088 108.096 79.111 C 127.768 63.253 149.217 49.23 172.526 39.092 C 179.254 36.166 194.207 39.034 199.214 33.952 C 233.59 33.932 267.995 31.497 301.619 38.764 C 313.025 41.23 324.368 43.94 335.799 46.183 C 338.757 46.763 354.289 52.166 350.435 52.166 C 379.922 52.152 407.918 81.053 424.722 102.678 C 428.723 107.825 433.36 117.758 436.835 121.234 C 436.838 130.706 443.573 138.108 446.762 146.734 C 456.164 172.17 466.026 200.237 469.697 227.259 C 470.436 232.705 475.061 254.681 467.477 251.635 C 471.412 258.151 468.969 270.331 468.969 277.783 C 468.969 286.761 470.933 298.489 468.697 307.301 C 465.363 320.432 453.056 335.273 445.292 346.287 C 439.265 354.833 438.225 363.392 433.971 371.686 C 432.595 374.371 431.253 377.051 429.699 379.665 C 429.218 380.472 426.896 384.184 426.896 382.972 C 423.982 391.638 409.12 401.917 402.308 407.6 C 392.565 415.729 377.978 420.621 369.131 428.676 C 356.517 440.159 338.862 450.97 320.742 450.97 C 318.351 450.965 315.136 454.119 312.835 455.266 C 305.607 458.874 298.564 462.422 290.808 464.652 C 271.118 470.315 251.165 465.111 231.296 465.111 C 218.951 465.111 208.661 464.444 196.901 460.9 C 195.484 460.475 186.567 459.152 186.567 458.274 C 176.781 458.252 164.853 460.178 155.331 457.98 C 139.95 454.428 124.703 444.728 109.638 444.728 C 103.691 444.733 99.452 448.486 94.089 450.697 C 83.787 454.942 72.55 459.409 63.061 465.109 C 59.91 466.999 51.944 468.367 48.511 466.639 C 47.324 466.041 41.527 463.804 42.84 463.804" transform="matrix(1, 0, 0, 1, -7.105427357601002e-15, 0)"/>
  <path d="M 427.154 72.658 C 380.471 25.951 317.084 -0.2 251.048 0.001 C 113.839 0.001 2.144 111.14 2.087 247.768 C 2.027 291.274 13.495 334.018 35.323 371.653 L 0 500 L 131.975 465.548 C 168.507 485.338 209.401 495.696 250.949 495.682 L 251.048 495.682 C 388.247 495.682 499.933 384.531 499.999 247.914 C 500.168 182.096 473.926 118.964 427.154 72.658 Z M 251.048 453.863 L 250.959 453.863 C 213.922 453.873 177.557 443.961 145.648 425.157 L 138.091 420.693 L 59.777 441.14 L 80.681 365.146 L 75.759 357.333 C 55.048 324.544 44.075 286.548 44.118 247.768 C 44.118 134.231 136.986 41.853 251.128 41.853 C 365.146 41.65 457.746 133.906 457.968 247.925 C 457.924 361.474 365.101 453.863 251.048 453.863 Z" fill-rule="evenodd" style="paint-order: fill; fill-rule: evenodd; fill: rgb(255, 255, 255);" transform="matrix(1, 0, 0, 1, -7.105427357601002e-15, 0)"/>
  <g id="svgGroup" stroke-linecap="round" fill-rule="evenodd" font-size="9pt" stroke="#d0d4d6" stroke-width="0.25mm" fill="#d0d4d6" style="stroke: rgb(208, 212, 214); stroke-width: 0.25mm; fill: rgb(208, 212, 214);" transform="matrix(2.5168659687042236, 0, 0, 2.3575520515441895, 134.38650512695312, 164.634033203125)">
    <path d="M 79.896 27.035 L 75.99 25.36 C 75.384 25.098 74.781 24.83 74.18 24.555 C 68.768 22.073 66.392 20.114 66.392 15.873 C 66.392 12.079 69.294 9.177 73.869 9.177 C 75.271 9.148 76.664 9.39 77.974 9.89 C 80.181 10.774 81.962 12.529 83.64 15.393 C 83.734 15.553 83.825 15.712 83.914 15.873 L 96.079 8.061 C 94.764 5.675 93.1 3.499 91.142 1.604 C 87.26 -2.07 82.543 -3.887 76.812 -4.33 C 75.834 -4.404 74.852 -4.44 73.869 -4.439 C 59.918 -4.439 50.99 4.489 50.99 16.208 C 50.99 28.931 58.467 34.958 69.74 39.757 L 73.646 41.431 C 80.79 44.556 85.03 46.454 85.03 51.811 C 85.03 55.576 82.093 58.466 77.292 59.281 C 76.344 59.437 75.386 59.515 74.427 59.512 C 72.623 59.53 70.827 59.273 69.1 58.754 C 64.549 57.343 61.512 54.083 59.026 50.024 L 46.302 57.391 C 48.94 62.655 53.176 66.948 58.403 69.657 C 61.466 71.253 64.996 72.4 69.003 72.961 C 70.911 73.225 72.836 73.355 74.763 73.352 C 88.8 73.352 99.443 66.463 100.558 53.823 C 100.623 53.079 100.655 52.333 100.654 51.588 C 100.654 38.529 93.177 32.726 79.896 27.035 Z M 37.821 49.802 L 37.821 -3.546 L 22.195 -3.546 L 22.195 49.579 C 22.195 57.391 18.958 59.4 13.825 59.4 C 12.738 59.414 11.657 59.235 10.633 58.87 C 7.721 57.801 5.996 55.23 4.269 52.225 C 4.105 51.939 3.942 51.652 3.781 51.364 L -8.943 59.066 C -6.748 63.955 -2.987 67.974 1.744 70.489 C 4.177 71.75 6.983 72.652 10.197 73.078 C 11.622 73.263 13.058 73.355 14.494 73.352 C 18.315 73.426 22.113 72.731 25.661 71.312 C 33.181 68.122 37.821 61.117 37.821 49.802 Z" vector-effect="non-scaling-stroke" style="fill: rgb(255, 255, 255);"/>
  </g>
</svg>