<?xml version="1.0" encoding="utf-8"?>
<svg viewBox="0 0 500 500" xmlns="http://www.w3.org/2000/svg">
  <path style="stroke: rgb(0, 0, 0); fill: rgb(15, 192, 67);" d="M 67.122 434.335 C 67.122 410.518 67.168 390.461 75.115 367.862 C 76.917 362.738 80.05 353.488 84.026 349.452 C 84.022 332.881 71.508 315.23 65.456 300.081 C 60.741 288.28 61.601 276.969 61.601 264.568 C 61.595 248.381 61.601 232.194 61.601 216.006 C 61.601 210.744 59.899 201.774 61.601 196.651 C 63.572 190.717 69.957 185.503 73.811 180.672 C 80.072 172.822 84.855 163.959 90.304 155.555 C 91.655 153.47 99.86 145.801 99.86 143.847 C 100.003 143.923 99.929 139.221 100.291 138.155 C 101.42 134.836 102.945 130.74 104.745 127.775 C 111.363 116.875 121.018 105.431 130.996 97.388 C 148.623 83.179 167.84 70.614 188.725 61.531 C 194.754 58.909 208.152 61.479 212.637 56.925 C 243.439 56.907 274.266 54.725 304.393 61.237 C 314.613 63.446 324.776 65.874 335.018 67.884 C 337.668 68.404 351.585 73.245 348.132 73.245 C 374.552 73.232 399.636 99.127 414.693 118.503 C 418.278 123.116 422.432 132.015 425.546 135.13 C 425.549 143.617 431.584 150.25 434.441 157.978 C 442.865 180.768 451.702 205.917 454.99 230.128 C 455.653 235.008 459.798 254.699 453.001 251.969 C 456.527 257.808 454.339 268.721 454.339 275.398 C 454.339 283.442 456.098 293.951 454.094 301.846 C 451.107 313.611 440.081 326.909 433.124 336.777 C 427.724 344.435 426.791 352.103 422.981 359.535 C 421.747 361.941 420.545 364.342 419.152 366.684 C 418.722 367.407 416.641 370.733 416.641 369.647 C 414.03 377.411 400.714 386.621 394.611 391.713 C 385.88 398.997 372.81 403.381 364.883 410.598 C 353.582 420.887 337.762 430.574 321.527 430.574 C 319.384 430.569 316.504 433.395 314.443 434.423 C 307.966 437.655 301.655 440.834 294.707 442.832 C 277.064 447.907 259.186 443.243 241.384 443.243 C 230.322 443.243 221.102 442.646 210.565 439.471 C 209.296 439.089 201.306 437.904 201.306 437.118 C 192.538 437.099 181.851 438.824 173.319 436.854 C 159.537 433.672 145.876 424.98 132.378 424.98 C 127.049 424.985 123.251 428.348 118.446 430.328 C 109.215 434.132 99.147 438.135 90.645 443.241 C 87.821 444.936 80.684 446.161 77.608 444.612 C 76.545 444.077 71.35 442.073 72.527 442.073"/>
  <path d="M 416.872 91.605 C 375.044 49.756 318.25 26.325 259.082 26.505 C 136.142 26.505 36.062 126.085 36.012 248.505 C 35.958 287.486 46.233 325.785 65.792 359.505 L 34.142 474.505 L 152.392 443.635 C 185.124 461.367 221.765 470.647 258.992 470.635 L 259.082 470.635 C 382.012 470.635 482.082 371.045 482.142 248.635 C 482.292 189.662 458.78 133.095 416.872 91.605 Z M 259.082 433.165 L 259.002 433.165 C 225.816 433.174 193.233 424.293 164.642 407.445 L 157.872 403.445 L 87.702 421.765 L 106.432 353.675 L 102.022 346.675 C 83.466 317.296 73.634 283.252 73.672 248.505 C 73.672 146.775 156.882 64.005 259.152 64.005 C 361.313 63.822 444.283 146.483 444.482 248.645 C 444.442 350.385 361.272 433.165 259.082 433.165 Z" fill-rule="evenodd" style="paint-order: fill; fill-rule: evenodd; fill: rgb(255, 255, 255);"/>
  <g id="svgGroup" stroke-linecap="round" fill-rule="evenodd" font-size="9pt" stroke="#d0d4d6" stroke-width="0.25mm" fill="#d0d4d6" style="stroke: rgb(208, 212, 214); stroke-width: 0.25mm; fill: rgb(208, 212, 214);" transform="matrix(2.5168659687042236, 0, 0, 2.3575520515441895, 134.38650512695312, 164.634033203125)">
    <path d="M 79.6 28.202 L 76.1 26.702 A 83.781 83.781 0 0 1 74.479 25.981 C 69.629 23.756 67.5 22.002 67.5 18.202 C 67.5 14.802 70.1 12.202 74.2 12.202 A 9.746 9.746 0 0 1 77.877 12.841 C 79.856 13.634 81.452 15.206 82.955 17.772 A 23.952 23.952 0 0 1 83.2 18.202 L 94.1 11.202 A 24.565 24.565 0 0 0 89.676 5.416 C 86.197 2.125 81.971 0.497 76.837 0.1 A 34.196 34.196 0 0 0 74.2 0.002 C 61.7 0.002 53.7 8.002 53.7 18.502 C 53.7 29.902 60.4 35.302 70.5 39.602 L 74 41.102 C 80.4 43.902 84.2 45.602 84.2 50.402 C 84.2 53.775 81.569 56.366 77.266 57.095 A 15.369 15.369 0 0 1 74.7 57.302 A 16.014 16.014 0 0 1 69.926 56.623 C 65.849 55.359 63.127 52.438 60.9 48.802 L 49.5 55.402 A 24.994 24.994 0 0 0 60.343 66.393 C 63.087 67.822 66.249 68.85 69.839 69.353 A 37.188 37.188 0 0 0 75 69.702 C 87.578 69.702 97.114 63.531 98.113 52.204 A 22.79 22.79 0 0 0 98.2 50.202 C 98.2 38.502 91.5 33.302 79.6 28.202 Z M 41.9 48.602 L 41.9 0.802 L 27.9 0.802 L 27.9 48.402 C 27.9 55.402 25 57.202 20.4 57.202 A 8.212 8.212 0 0 1 17.54 56.727 C 14.931 55.769 13.385 53.466 11.838 50.773 A 116.19 116.19 0 0 1 11.4 50.002 L 0 56.902 A 21.615 21.615 0 0 0 9.576 67.138 C 11.756 68.268 14.269 69.076 17.15 69.457 A 29.393 29.393 0 0 0 21 69.702 A 25.583 25.583 0 0 0 31.005 67.875 C 37.744 65.017 41.9 58.74 41.9 48.602 Z" vector-effect="non-scaling-stroke" style="fill: rgb(255, 255, 255);"/>
  </g>
</svg>